<?xml version="1.0" standalone="no"?>
<!DOCTYPE svg PUBLIC "-//W3C//DTD SVG 20010904//EN"
 "http://www.w3.org/TR/2001/REC-SVG-20010904/DTD/svg10.dtd">
<svg version="1.0" xmlns="http://www.w3.org/2000/svg"
 width="500.000000pt" height="500.000000pt" viewBox="0 0 500.000000 500.000000"
 preserveAspectRatio="xMidYMid meet">
<metadata>
Created by potrace 1.14, written by Peter Selinger 2001-2017
</metadata>
<g transform="translate(0.000000,500.000000) scale(0.100000,-0.100000)"
fill="#000000" stroke="none">
<path d="M0 2500 l0 -2500 2500 0 2500 0 0 2500 0 2500 -2500 0 -2500 0 0
-2500z m4176 1254 c-17 -126 -136 -225 -341 -283 -99 -28 -56 -26 57 3 99 25
187 64 226 99 21 20 22 20 22 1 -1 -30 -35 -96 -66 -128 -62 -61 -145 -101
-299 -142 -88 -24 -89 -24 -30 -18 68 7 164 29 213 49 30 13 32 13 23 -4 -37
-69 -168 -146 -301 -177 -92 -21 -410 -33 -410 -15 0 17 79 250 97 285 53 106
91 126 368 194 110 28 228 61 262 75 68 28 149 81 157 104 12 31 28 0 22 -43z
m-2658 -424 c83 -36 152 -131 152 -209 0 -7 -38 -11 -105 -11 -85 0 -105 3
-105 14 0 8 -10 27 -23 42 -17 20 -33 27 -63 27 -83 2 -123 -27 -110 -79 7
-25 65 -60 141 -84 158 -50 246 -132 261 -243 9 -62 -11 -122 -58 -173 -104
-113 -362 -113 -497 1 -40 34 -81 116 -81 163 l0 32 105 0 105 0 0 -29 c0 -41
28 -70 79 -82 98 -22 162 24 135 96 -7 18 -77 55 -139 75 -74 23 -176 83 -210
123 -63 74 -69 181 -13 259 24 34 96 78 157 95 70 20 205 11 269 -17z m702
-11 c163 -76 218 -262 119 -405 -21 -31 -47 -52 -96 -76 -61 -30 -77 -33 -175
-37 l-108 -3 0 -129 0 -129 -105 0 -105 0 0 406 0 406 208 -4 c198 -3 209 -4
262 -29z m417 19 c6 -7 38 -82 73 -166 35 -84 66 -149 70 -145 3 4 28 62 55
128 27 66 57 137 67 158 l18 37 105 0 c58 0 105 -4 105 -8 0 -5 -56 -124 -125
-265 l-125 -256 0 -140 0 -141 -105 0 -105 0 0 145 0 145 -125 250 c-69 137
-125 254 -125 260 0 15 205 13 217 -2z m-1509 -1365 c16 -43 32 -88 36 -100
10 -32 -11 -30 -26 2 -9 21 -18 25 -54 25 -36 0 -43 -3 -48 -25 -4 -14 -13
-25 -21 -25 -11 0 -8 18 16 83 17 45 34 90 36 100 11 36 32 14 61 -60z m151 0
l51 -78 0 78 c0 62 3 77 15 77 12 0 15 -18 15 -100 0 -126 -11 -129 -79 -22
l-51 77 0 -77 c0 -63 -3 -78 -15 -78 -12 0 -15 18 -15 100 0 126 11 129 79 23z
m286 43 c49 -118 64 -166 50 -166 -8 0 -17 11 -21 25 -5 22 -12 25 -50 25 -38
0 -46 -4 -54 -25 -9 -23 -30 -35 -30 -17 0 4 13 41 28 82 16 41 32 83 35 93
10 27 27 20 42 -17z m205 14 c24 -24 26 -40 5 -40 -8 0 -15 6 -15 14 0 18 -33
29 -61 21 -34 -11 -20 -47 26 -65 57 -22 65 -28 65 -55 0 -28 -34 -55 -70 -55
-31 0 -70 26 -70 46 0 20 13 18 33 -7 24 -28 71 -23 75 9 3 18 -4 26 -35 38
-45 19 -73 42 -73 61 0 23 39 53 70 53 17 0 39 -9 50 -20z m158 4 c12 -8 22
-22 22 -30 0 -20 -13 -17 -28 6 -14 23 -54 26 -72 5 -16 -20 -5 -34 45 -55 50
-21 66 -45 54 -77 -9 -25 -47 -38 -83 -29 -40 10 -76 56 -43 56 7 0 18 -9 25
-20 21 -33 82 -21 82 17 0 7 -25 24 -55 38 -45 20 -55 28 -55 49 0 28 33 56
65 56 11 0 31 -7 43 -16z m92 -84 c0 -82 -3 -100 -15 -100 -12 0 -15 18 -15
100 0 82 3 100 15 100 12 0 15 -18 15 -100z m160 80 c24 -24 26 -40 5 -40 -8
0 -15 6 -15 14 0 18 -33 29 -61 21 -34 -11 -20 -47 26 -65 57 -22 65 -28 65
-55 0 -28 -34 -55 -70 -55 -31 0 -70 26 -70 46 0 20 13 18 33 -7 24 -28 71
-23 75 9 3 18 -4 26 -35 38 -45 19 -73 42 -73 61 0 23 39 53 70 53 17 0 39 -9
50 -20z m190 10 c0 -5 -13 -10 -30 -10 l-30 0 0 -90 c0 -73 -3 -90 -15 -90
-12 0 -15 17 -15 90 l0 90 -30 0 c-16 0 -30 5 -30 10 0 6 32 10 75 10 43 0 75
-4 75 -10z m-1230 -340 c0 -5 -22 -10 -50 -10 l-50 0 0 -35 c0 -35 0 -35 45
-35 25 0 45 -4 45 -10 0 -5 -20 -10 -45 -10 l-45 0 0 -45 c0 -25 -4 -45 -10
-45 -6 0 -10 40 -10 100 l0 100 60 0 c33 0 60 -4 60 -10z m156 -14 c24 -20 28
-31 28 -76 0 -45 -4 -56 -28 -76 -35 -31 -71 -30 -101 1 -20 19 -25 34 -25 75
0 88 66 128 126 76z m186 7 c22 -20 23 -60 2 -84 -14 -16 -14 -21 6 -58 27
-53 3 -57 -25 -3 -15 27 -28 38 -47 40 -27 3 -28 1 -28 -37 0 -23 -4 -41 -10
-41 -6 0 -10 40 -10 100 l0 100 47 0 c29 0 53 -6 65 -17z m253 -8 c20 -19 25
-34 25 -75 0 -88 -66 -128 -126 -76 -24 20 -28 31 -28 76 0 45 4 56 28 76 35
31 71 30 101 -1z m183 9 c26 -18 29 -60 5 -86 -15 -17 -15 -21 6 -58 18 -33
20 -40 7 -40 -9 0 -25 18 -36 40 -16 30 -26 40 -45 40 -22 0 -25 -4 -25 -40 0
-22 -4 -40 -10 -40 -6 0 -10 40 -10 100 l0 100 43 0 c23 0 53 -7 65 -16z m180
0 c26 -18 29 -60 5 -86 -11 -12 -30 -18 -60 -18 l-43 0 0 -40 c0 -22 -4 -40
-10 -40 -6 0 -10 40 -10 100 l0 100 48 0 c27 0 57 -7 70 -16z m82 -29 l0 -45
50 0 50 0 0 45 c0 33 4 45 15 45 12 0 15 -18 15 -100 0 -82 -3 -100 -15 -100
-11 0 -15 12 -15 45 l0 45 -50 0 -50 0 0 -45 c0 -25 -4 -45 -10 -45 -6 0 -10
40 -10 100 0 60 4 100 10 100 6 0 10 -20 10 -45z m288 -32 c16 -43 32 -88 36
-100 10 -32 -11 -30 -26 2 -9 21 -18 25 -54 25 -36 0 -43 -3 -48 -25 -4 -14
-13 -25 -21 -25 -11 0 -8 18 16 83 17 45 34 90 36 100 11 36 32 14 61 -60z
m149 0 l48 -78 3 78 c4 113 22 95 22 -23 0 -59 -4 -100 -10 -100 -5 0 -31 32
-57 72 l-48 71 -3 -71 c-2 -55 -6 -72 -17 -72 -12 0 -15 19 -15 100 0 126 11
129 77 23z"/>
<path d="M3728 3443 c7 -3 16 -2 19 1 4 3 -2 6 -13 5 -11 0 -14 -3 -6 -6z"/>
<path d="M1960 3076 l0 -106 81 0 c76 0 82 2 111 30 27 28 30 36 25 77 -3 31
-13 54 -31 72 -23 23 -36 26 -106 29 l-80 4 0 -106z"/>
<path d="M1068 1965 l-17 -45 35 0 c32 0 35 2 28 23 -11 37 -23 67 -27 67 -1
0 -10 -20 -19 -45z"/>
<path d="M1532 1990 c-26 -67 -26 -70 7 -70 34 0 36 7 16 60 l-13 35 -10 -25z"/>
<path d="M1217 1677 c-22 -16 -32 -74 -18 -109 15 -39 58 -48 83 -18 35 43 14
140 -31 140 -9 0 -25 -6 -34 -13z"/>
<path d="M1390 1650 l0 -41 36 3 c22 2 42 10 48 21 17 26 -5 51 -48 55 l-36 3
0 -41z"/>
<path d="M1650 1670 c-40 -40 -15 -140 35 -140 29 0 55 38 55 80 0 42 -26 80
-55 80 -8 0 -24 -9 -35 -20z"/>
<path d="M1830 1650 c0 -38 2 -40 29 -40 28 0 61 22 61 40 0 18 -33 40 -61 40
-27 0 -29 -2 -29 -40z"/>
<path d="M2000 1650 c0 -40 0 -40 40 -40 29 0 42 5 50 19 13 25 13 27 -6 45
-8 9 -31 16 -50 16 -33 0 -34 -1 -34 -40z"/>
<path d="M2408 1625 l-17 -45 35 0 c32 0 35 2 28 23 -11 37 -23 67 -27 67 -1
0 -10 -20 -19 -45z"/>
</g>
</svg>
